# xmcd
#
# Track frame offsets: 
#        150
#        13607
#        25546
#        38131
#        50134
#        65332
#        76575
#        85759
#        98804
#        107517
#        118520
#        128587
#        140526
#        152800
#        165917
#        188533
#        199669
#        213796
#        225049
#        237048
#        249639
#        262074
#        274534
#        287676
#        300442
#        313907
#        325389
#        335306
#
# Disc length: 4644 seconds
#
# Revision: 0
# Processed by: cddbd v1.5.2PL0 Copyright (c) Steve Scherf et al.
# Submitted via: ExactAudioCopy v1.0b3
#
DISCID=6312221c
DTITLE=Big Joe Turner - Rock 'n'Roll Legend
DYEAR=2008
DGENRE=Blues
TTITLE0=Shake, Rattle and roll
TTITLE1=Honey Hush
TTITLE2=Fip, Flop and Fly
TTITLE3=Boogie Woogie Country Girl
TTITLE4=Chains Of Love
TTITLE5=Lipstick, Powder and Paint
TTITLE6=Rock A While
TTITLE7=Corrine, Corrina
TTITLE8=Love Roller Coaster
TTITLE9=Teenage Letter
TTITLE10=Feeling Happy
TTITLE11=Midnight Special Train
TTITLE12=Hide and Seek
TTITLE13=Ti-Ri-Lee
TTITLE14=In The Evening (When The Sun Goes Down)
TTITLE15=Well, All Right
TTITLE16=You Know I Love You
TTITLE17=Don't You Cry
TTITLE18=The Chicken and The Hawk
TTITLE19=Married Woman
TTITLE20=Oke-She-Moke-She-Pop
TTITLE21=The Chill Is On
TTITLE22=Sweet Sixteen
TTITLE23=Tv Mama
TTITLE24=Cherry Red
TTITLE25=Low Down Dog
TTITLE26=Morning Glories
TTITLE27=Roll 'Em Pete
EXTD=
EXTT0=
EXTT1=
EXTT2=
EXTT3=
EXTT4=
EXTT5=
EXTT6=
EXTT7=
EXTT8=
EXTT9=
EXTT10=
EXTT11=
EXTT12=
EXTT13=
EXTT14=
EXTT15=
EXTT16=
EXTT17=
EXTT18=
EXTT19=
EXTT20=
EXTT21=
EXTT22=
EXTT23=
EXTT24=
EXTT25=
EXTT26=
EXTT27=
PLAYORDER=
